<svg width="156" height="26" viewBox="0 0 156 26" fill="none" xmlns="http://www.w3.org/2000/svg">
<g clip-path="url(#clip0_12824_35874)">
<path d="M17.7984 18.7L17.6984 18.9L15.5984 24.2C12.0984 24.2 9.39844 24.2 7.89844 24.2C7.39844 24.2 6.49844 24.2 5.39844 23.8C4.79844 23.6 4.39844 23.3 4.19844 23.2C3.29844 22.6 2.69844 22 2.49844 21.9C2.29844 21.7 1.29844 20.6 0.798435 19.1C0.698435 18.8 0.598434 18.5 0.598434 18.4C0.398434 17.7 0.398438 17.2 0.398438 16.8C0.598438 17.1 0.898435 17.4 1.29844 17.7C2.59844 18.7 3.99843 18.7 4.59843 18.7C8.99843 18.7 13.3984 18.7 17.7984 18.7Z" fill="#5024E2"/>
<path d="M4.59701 19C4.49701 19.5 4.29701 20.1 4.29701 20.8C4.29701 22.1 4.69701 23.1 4.89701 23.7C4.59701 23.5 4.09701 23.3 3.59701 22.9C3.19701 22.6 2.49701 22.1 1.89701 21.2C1.39701 20.5 0.297012 18.8 0.397012 16.5C0.397012 15.7 0.597009 15 0.797009 14.3L3.59701 5.89999H9.49701C7.89701 10.2 6.19701 14.6 4.59701 19Z" fill="#FECB00"/>
<path d="M0.398438 16.8C0.698438 17.1 0.898435 17.4 1.29844 17.7C2.59844 18.7 3.99843 18.7 4.59843 18.7L4.49844 18.9C4.39844 19.4 4.19844 20 4.19844 20.7C4.19844 22 4.59844 23 4.79844 23.6C4.39844 23.4 3.99844 23.2 3.49844 22.8C3.09844 22.5 2.39844 22 1.79844 21.1C1.39844 20.5 0.398438 19 0.398438 16.8Z" fill="#47D46F"/>
<path d="M0.398438 16.8C0.698438 17.1 0.898435 17.4 1.29844 17.7C2.59844 18.7 3.99843 18.7 4.59843 18.7L4.49844 18.9C4.39844 19.4 4.19844 20 4.19844 20.7C4.19844 22 4.59844 23 4.79844 23.6C4.39844 23.4 3.99844 23.2 3.49844 22.8C3.09844 22.5 2.39844 22 1.79844 21.1C1.39844 20.5 0.398438 19 0.398438 16.8Z" fill="#47D46F"/>
<path d="M9.59375 5.79999L9.69375 5.59998L11.7938 0.299988C15.2938 0.299988 17.9938 0.299988 19.4938 0.299988C19.9938 0.299988 20.8938 0.299982 21.9938 0.699982C22.5938 0.899982 22.9937 1.19999 23.1937 1.29999C24.0937 1.89999 24.6938 2.49998 24.8938 2.59998C25.0938 2.79998 26.0938 3.89999 26.5938 5.39999C26.6938 5.69999 26.7938 5.99998 26.7938 6.09998C26.9938 6.79998 26.9938 7.29998 26.9938 7.69998C26.7938 7.39998 26.4937 7.09999 26.0938 6.79999C24.7937 5.79999 23.3938 5.79999 22.7938 5.79999C18.3938 5.79999 13.9938 5.79999 9.59375 5.79999Z" fill="#5024E2"/>
<path d="M22.9 5.59999C23 5.09999 23.2 4.5 23.2 3.8C23.2 2.5 22.8 1.49999 22.6 0.899994C22.9 1.09999 23.4 1.29999 23.9 1.69999C24.3 1.99999 25 2.49999 25.6 3.39999C26.1 4.09999 27.2 5.79999 27.1 8.09999C27.1 8.89999 26.9 9.6 26.7 10.3L23.9 18.7H18C19.5 14.4 21.2 9.99999 22.9 5.59999Z" fill="#FECB00"/>
<path d="M26.9938 7.69999C26.6938 7.39999 26.4938 7.1 26.0938 6.8C24.7938 5.8 23.3938 5.8 22.7938 5.8L22.8938 5.59999C22.9938 5.09999 23.1937 4.5 23.1937 3.8C23.1937 2.5 22.7938 1.49999 22.5938 0.899994C22.9938 1.09999 23.3938 1.29999 23.8938 1.69999C24.2938 1.99999 24.9938 2.49999 25.5938 3.39999C25.9938 4.09999 26.9938 5.59999 26.9938 7.69999Z" fill="#47D46F"/>
<path d="M26.9938 7.69999C26.6938 7.39999 26.4938 7.1 26.0938 6.8C24.7938 5.8 23.3938 5.8 22.7938 5.8L22.8938 5.59999C22.9938 5.09999 23.1937 4.5 23.1937 3.8C23.1937 2.5 22.7938 1.49999 22.5938 0.899994C22.9938 1.09999 23.3938 1.29999 23.8938 1.69999C24.2938 1.99999 24.9938 2.49999 25.5938 3.39999C25.9938 4.09999 26.9938 5.59999 26.9938 7.69999Z" fill="#47D46F"/>
<path d="M47.8031 5.7C46.0031 4 43.8031 3.10001 41.1031 3.10001C38.5031 3.10001 36.2031 4 34.4031 5.7C32.6031 7.4 31.7031 9.6 31.7031 12.2C31.7031 14.8 32.6031 16.9 34.5031 18.7C36.3031 20.4 38.5031 21.3 41.1031 21.3C43.7031 21.3 46.0031 20.4 47.8031 18.7C49.6031 16.8 50.6031 14.7 50.6031 12.2C50.6031 9.7 49.7031 7.5 47.8031 5.7ZM45.6031 16.3C44.4031 17.4 42.9031 18 41.2031 18C39.4031 18 38.0031 17.4 36.8031 16.3C35.6031 15.2 35.1031 13.8 35.1031 12.2C35.1031 10.5 35.6031 9.10001 36.8031 8.10001C38.0031 6.90001 39.4031 6.40001 41.2031 6.40001C43.0031 6.40001 44.5031 7.00001 45.6031 8.10001C46.8031 9.30001 47.3031 10.6 47.3031 12.2C47.3031 13.7 46.8031 15.1 45.6031 16.3Z" fill="#070707"/>
<path d="M64.9047 12.7V21.2H61.6047V13.5C61.6047 13.3 61.6047 13.1 61.5047 13C61.5047 12.9 61.4047 12.7 61.4047 12.6C61.3047 12.4 61.2047 12.2 61.1047 12.1C61.0047 11.9 60.9047 11.8 60.8047 11.7C60.6047 11.4 60.3047 11.3 59.9047 11.2C59.6047 11.1 59.2047 11 58.8047 11C58.6047 11 58.4047 11 58.1047 11.1C57.9047 11.1 57.8047 11.2 57.6047 11.2H57.5047C57.1047 11.3 56.8047 11.5 56.5047 11.8C56.4047 11.9 56.3047 12.1 56.2047 12.2C56.2047 12.3 56.1047 12.3 56.1047 12.3C56.0047 12.4 55.9047 12.6 55.9047 12.7C55.7047 13 55.6047 13.4 55.6047 13.8V21.3H52.3047V8.30001H55.6047V10.5L55.8047 10.1C56.1047 9.5 57.2047 8.00001 59.7047 8.00001C63.3047 7.90001 64.9047 10.4 64.9047 12.7Z" fill="#070707"/>
<path d="M107 7.99998V9.59998L106.9 9.49998C106.8 9.49998 106.8 9.39999 106.8 9.39999C106.7 9.29999 106.5 9.09998 106.4 8.99998C106.3 8.89998 106.3 8.89999 106.2 8.79999C105.2 8.09999 104 7.79999 102.5 7.79999C100.5 7.79999 98.9 8.49999 97.6 9.79999C96.2 11.1 95.5 12.8 95.5 14.7C95.5 16.6 96.2 18.3 97.6 19.7C99 21 100.6 21.7 102.5 21.7C103.9 21.7 105 21.4 106 20.8H106.1V20.7C106.5 20.4 106.7 20.2 106.9 19.9L107 19.7V21.3H109.8V7.99998H107ZM105.7 17.6C104.9 18.4 103.9 18.8 102.6 18.8C101.3 18.8 100.3 18.4 99.5 17.6C98.6 16.8 98.3 15.9 98.3 14.7C98.3 13.5 98.7 12.6 99.5 11.8C100.4 11 101.4 10.5 102.6 10.5C103.9 10.5 104.9 10.9 105.7 11.8C106.5 12.6 107 13.6 107 14.7C107 15.8 106.5 16.8 105.7 17.6Z" fill="#070707"/>
<path d="M85.6016 8.20001L79.7016 23L78.5016 25.7H75.0016L76.9016 21.3L71.6016 8.20001H75.1016L78.7016 17.1V17.2L82.2016 8.20001H85.6016Z" fill="#070707"/>
<path d="M70.2047 3H66.8047V21.2H70.2047V3Z" fill="#070707"/>
<path d="M116.5 10.9V17.3C116.5 17.8 116.6 18.1 116.7 18.2C116.9 18.3 117.4 18.3 117.7 18.3C118.2 18.3 118.6 18.3 119.3 18.3H120V21L119.4 21.1C118.8 21.1 118.2 21.2 117.7 21.2C116.9 21.2 116.2 21.1 115.7 20.8C115.5 20.7 115.2 20.6 115.2 20.6C115 20.5 114.8 20.3 114.7 20.2C114 19.6 113.7 18.6 113.7 17.4V10.9H111V8H113.6V5.3L116.5 4.5V8H120V10.9C118.8 10.9 117.7 10.9 116.5 10.9Z" fill="#070707"/>
<path d="M152.103 11.4V17.8C152.103 18.3 152.203 18.6 152.303 18.7C152.503 18.8 153.003 18.8 153.303 18.8C153.803 18.8 154.203 18.8 154.903 18.8H155.603V21.5L155.003 21.6C154.403 21.6 153.803 21.7 153.303 21.7C152.503 21.7 151.803 21.6 151.303 21.3C151.103 21.2 150.803 21.1 150.803 21.1C150.603 21 150.403 20.8 150.303 20.7C149.603 20.1 149.303 19.1 149.303 17.9V11.4H146.703V8.5H149.303V5.8L152.203 5V8.5H155.703V11.4C154.503 11.3 153.303 11.3 152.103 11.4Z" fill="#070707"/>
<path d="M132.703 10.1C131.503 8.80001 129.903 8.10001 128.003 8.10001C126.003 8.10001 124.403 8.80001 123.103 10C121.803 11.2 121.203 12.8 121.203 14.7C121.203 16.6 121.903 18.2 123.203 19.4C124.503 20.6 126.203 21.2 128.203 21.2C129.603 21.2 130.603 21 131.603 20.5C131.703 20.4 131.803 20.4 131.903 20.3C132.203 20.1 132.403 20 132.603 19.8C131.903 19.2 131.103 18.6 130.403 18C130.403 18 130.303 18 130.303 18.1C129.803 18.4 129.003 18.6 128.303 18.6C127.103 18.6 126.303 18.3 125.503 17.7C125.003 17.3 124.603 16.8 124.403 16.2V16.1H134.503L134.603 15.5C134.603 15.2 134.603 14.9 134.603 14.8C134.503 13 133.903 11.4 132.703 10.1ZM124.303 13.3C124.603 12.6 124.903 12.1 125.403 11.7C126.103 11.1 127.003 10.8 128.103 10.8C129.103 10.8 129.803 11.1 130.603 11.6C131.103 12 131.403 12.5 131.603 13.2V13.3H124.303Z" fill="#070707"/>
<path d="M145.606 17.3C145.606 18.5 145.106 19.4 144.206 20.2C143.306 20.9 142.106 21.2 140.706 21.2C139.506 21.2 138.406 20.9 137.506 20.4C136.606 19.8 135.906 19.1 135.606 18.2L135.406 17.7L137.806 16.3L138.106 16.9C138.206 17.3 138.506 17.7 139.006 18C139.906 18.5 141.506 18.6 142.406 18.1C142.706 17.9 142.906 17.6 142.906 17.2C142.906 16.9 142.806 16.7 142.406 16.5C142.006 16.2 141.506 16 140.806 15.8L138.806 15.3C138.006 15.1 137.306 14.7 136.806 14.2C136.206 13.6 135.906 12.8 135.906 11.9C135.906 10.8 136.406 9.9 137.306 9.1C138.206 8.4 139.306 8 140.606 8C141.606 8 142.606 8.2 143.406 8.7C144.206 9.1 144.806 9.8 145.306 10.6L145.506 11.1L143.106 12.4L142.806 11.8C142.506 11 141.806 10.6 140.506 10.6C140.006 10.6 139.506 10.7 139.106 11C138.806 11.2 138.606 11.5 138.606 11.8C138.606 12.1 138.806 12.3 139.106 12.5C139.606 12.8 140.106 13 140.706 13.2L142.706 13.8C143.506 14 144.106 14.4 144.706 15C145.306 15.6 145.606 16.4 145.606 17.3Z" fill="#070707"/>
<path d="M95.0063 18.3C94.6063 19.2 94.1063 20.1 93.7063 21.1L93.6063 21.3H82.9062L89.9062 3.20001H93.7063L87.8063 18.2L87.7063 18.4H95.0063V18.3Z" fill="#070707"/>
</g>
<defs>
<clipPath id="clip0_12824_35874">
<rect width="156" height="26" fill="white"/>
</clipPath>
</defs>
</svg>
