<svg width="23" height="16" viewBox="0 0 23 16" fill="none" xmlns="http://www.w3.org/2000/svg">
<rect x="0.235352" y="0.532227" width="21.9296" height="14.9366" rx="6.4499" fill="#1F72CD"/>
<path fill-rule="evenodd" clip-rule="evenodd" d="M3.94411 5.86133L1.88574 10.2899H4.3499L4.65538 9.5838H5.35365L5.65913 10.2899H8.37147V9.75098L8.61315 10.2899H10.0162L10.2579 9.73959V10.2899H15.8988L16.5847 9.60213L17.227 10.2899L20.1243 10.2956L18.0594 8.08797L20.1243 5.86133H17.2719L16.6042 6.53638L15.9822 5.86133H9.84559L9.31864 7.00438L8.77933 5.86133H6.32032V6.38191L6.04677 5.86133H3.94411ZM4.42077 6.49021H5.62191L6.98722 9.49325V6.49021H8.30303L9.35757 8.64337L10.3295 6.49021H11.6387V9.668H10.8421L10.8356 7.1779L9.67413 9.668H8.9615L7.79358 7.1779V9.668H6.15472L5.84402 8.95558H4.16544L3.85538 9.66737H2.9773L4.42077 6.49021ZM15.6069 6.49021H12.3676V9.66612H15.5567L16.5846 8.61358L17.5754 9.66612H18.6111L17.1057 8.08737L18.6111 6.49021H17.6203L16.5976 7.53067L15.6069 6.49021ZM5.0053 7.02778L4.45227 8.29689H5.55768L5.0053 7.02778ZM13.1674 7.72812V7.14802V7.14746H15.1886L16.0705 8.0752L15.1495 9.008H13.1674V8.37469H14.9345V7.72812H13.1674Z" fill="white"/>
</svg>
