<svg width="23" height="16" viewBox="0 0 23 16" fill="none" xmlns="http://www.w3.org/2000/svg">
<rect x="0.735352" y="1.03223" width="20.9296" height="13.9366" rx="5.9499" fill="white" stroke="#DDE1E8"/>
<path d="M9.10059 14.7114L21.3554 11.1328C21.3554 13.1092 19.7532 14.7114 17.7768 14.7114H9.10059Z" fill="#FD6020"/>
<path fill-rule="evenodd" clip-rule="evenodd" d="M19.0197 6.23477C19.696 6.23477 20.068 6.53027 20.068 7.08844C20.1018 7.51527 19.7975 7.87643 19.3917 7.9421L20.3048 9.15692H19.5946L18.8167 7.97493H18.7491V9.15692H18.1742V6.23477H19.0197ZM18.749 7.58088H18.9181C19.2901 7.58088 19.4592 7.41671 19.4592 7.12122C19.4592 6.85855 19.2901 6.69439 18.9181 6.69439H18.749V7.58088ZM16.179 9.15692H17.8022V8.66443H16.7539V7.87643H17.7684V7.38393H16.7539V6.72727H17.8022V6.23477H16.179V9.15692ZM14.4879 8.20476L13.71 6.23477H13.1013L14.3526 9.22259H14.657L15.9082 6.23477H15.2995L14.4879 8.20476ZM7.6227 7.71222C7.6227 8.53305 8.29907 9.22254 9.14453 9.22254C9.41508 9.22254 9.6518 9.15688 9.88853 9.05838V8.40172C9.71944 8.59872 9.48271 8.73005 9.21217 8.73005C8.67107 8.73005 8.23143 8.33605 8.23143 7.81072V7.74505C8.19761 7.21972 8.63725 6.76006 9.17835 6.72723C9.44889 6.72723 9.71944 6.85856 9.88853 7.05556V6.3989C9.68562 6.26756 9.41508 6.23473 9.17835 6.23473C8.29907 6.16906 7.6227 6.85856 7.6227 7.71222ZM6.5746 7.35106C6.23641 7.21973 6.13496 7.15406 6.13496 6.98989C6.16878 6.7929 6.33787 6.62873 6.54078 6.66156C6.70987 6.66156 6.87896 6.76006 7.01423 6.8914L7.3186 6.4974C7.08187 6.3004 6.77751 6.16907 6.47314 6.16907C5.99968 6.13623 5.59386 6.4974 5.56005 6.95706V6.98989C5.56005 7.38389 5.72914 7.61372 6.27023 7.77789C6.4055 7.81072 6.54078 7.87639 6.67605 7.94206C6.77751 8.00772 6.84514 8.10622 6.84514 8.23755C6.84514 8.46739 6.64223 8.66438 6.43932 8.66438H6.4055C6.13496 8.66438 5.89823 8.50022 5.79677 8.27039L5.42477 8.63155C5.62768 8.99272 6.0335 9.18972 6.43932 9.18972C6.98042 9.22255 7.42005 8.82855 7.45387 8.30322V8.20472C7.42005 7.81072 7.25096 7.61372 6.5746 7.35106ZM4.61326 9.15692H5.18817V6.23477H4.61326V9.15692ZM1.94141 6.23477H2.78686H2.95596C3.7676 6.26761 4.41015 6.92427 4.37633 7.71226C4.37633 8.1391 4.17342 8.53309 3.83523 8.82859C3.53087 9.05842 3.15887 9.18975 2.78686 9.15692H1.94141V6.23477ZM2.68531 8.66438C2.95586 8.69721 3.26022 8.59871 3.46313 8.43455C3.66604 8.23755 3.7675 7.97488 3.7675 7.67939C3.7675 7.41672 3.66604 7.15406 3.46313 6.95706C3.26022 6.79289 2.95586 6.69439 2.68531 6.72723H2.51622V8.66438H2.68531Z" fill="black"/>
<path fill-rule="evenodd" clip-rule="evenodd" d="M11.6133 6.16699C10.7678 6.16699 10.0576 6.82365 10.0576 7.67732C10.0576 8.49814 10.734 9.18764 11.6133 9.22047C12.4925 9.25331 13.1689 8.56381 13.2027 7.71015C13.1689 6.85649 12.4925 6.16699 11.6133 6.16699V6.16699Z" fill="#FD6020"/>
</svg>
