<svg width="23" height="16" viewBox="0 0 23 16" fill="none" xmlns="http://www.w3.org/2000/svg">
<rect x="0.735352" y="1.03223" width="20.9297" height="13.9366" rx="5.9499" fill="white" stroke="#DDE1E8"/>
<path fill-rule="evenodd" clip-rule="evenodd" d="M11.1156 10.9518C10.3494 11.5618 9.35546 11.9301 8.26934 11.9301C5.84619 11.9301 3.88184 10.097 3.88184 7.83566C3.88184 5.57436 5.84619 3.74121 8.26934 3.74121C9.35547 3.74121 10.3494 4.10951 11.1156 4.71957C11.8818 4.10951 12.8757 3.74122 13.9619 3.74122C16.385 3.74122 18.3494 5.57437 18.3494 7.83567C18.3494 10.097 16.385 11.9301 13.9619 11.9301C12.8757 11.9301 11.8818 11.5618 11.1156 10.9518Z" fill="#ED0006"/>
<path fill-rule="evenodd" clip-rule="evenodd" d="M11.1143 10.9525C12.058 10.2015 12.6564 9.08378 12.6564 7.83566C12.6564 6.58753 12.058 5.46985 11.1143 4.71885C11.8803 4.10921 12.8739 3.74121 13.9596 3.74121C16.3828 3.74121 18.3471 5.57436 18.3471 7.83566C18.3471 10.097 16.3828 11.9301 13.9596 11.9301C12.8739 11.9301 11.8803 11.5621 11.1143 10.9525Z" fill="#F9A000"/>
<path fill-rule="evenodd" clip-rule="evenodd" d="M11.1154 10.9518C12.0586 10.2008 12.6566 9.08347 12.6566 7.83577C12.6566 6.58807 12.0586 5.47072 11.1154 4.71973C10.1722 5.47072 9.57422 6.58807 9.57422 7.83577C9.57422 9.08347 10.1722 10.2008 11.1154 10.9518Z" fill="#FF5E00"/>
</svg>

