<svg width="23" height="16" viewBox="0 0 23 16" fill="none" xmlns="http://www.w3.org/2000/svg">
<rect x="1.33496" y="1.03223" width="20.9297" height="13.9366" rx="5.9499" fill="white" stroke="#DDE1E8"/>
<path fill-rule="evenodd" clip-rule="evenodd" d="M7.95661 10.3582H6.62383L5.62442 6.65128C5.57698 6.48076 5.47626 6.33001 5.3281 6.25896C4.95835 6.08041 4.55092 5.93831 4.10645 5.86664V5.72393H6.25344C6.54976 5.72393 6.77199 5.93831 6.80903 6.18729L7.32759 8.86122L8.65971 5.72393H9.95544L7.95661 10.3582ZM10.696 10.3582H9.43732L10.4738 5.72393H11.7325L10.696 10.3582ZM13.3612 7.0079C13.3983 6.7583 13.6205 6.61559 13.8798 6.61559C14.2872 6.57975 14.7311 6.65142 15.1015 6.82935L15.3237 5.83157C14.9533 5.68885 14.5459 5.61719 14.1761 5.61719C12.9545 5.61719 12.0655 6.2591 12.0655 7.15C12.0655 7.82775 12.6952 8.18361 13.1397 8.398C13.6205 8.61176 13.8057 8.75448 13.7687 8.96825C13.7687 9.28889 13.3983 9.43161 13.0285 9.43161C12.5841 9.43161 12.1396 9.32473 11.7328 9.14618L11.5106 10.1446C11.955 10.3225 12.4359 10.3942 12.8804 10.3942C14.2502 10.4294 15.1015 9.78809 15.1015 8.82553C15.1015 7.61336 13.3612 7.54232 13.3612 7.0079ZM19.5065 10.3582L18.5071 5.72393H17.4336C17.2114 5.72393 16.9891 5.86664 16.915 6.08041L15.0644 10.3582H16.3601L16.6187 9.68107H18.2108L18.3589 10.3582H19.5065ZM17.6186 6.97203L17.9883 8.71861H16.9519L17.6186 6.97203Z" fill="#172B85"/>
</svg>
